<?xml version="1.0"?>
<svg xmlns="http://www.w3.org/2000/svg" xmlns:xlink="http://www.w3.org/1999/xlink" xmlns:svgjs="http://svgjs.com/svgjs" version="1.1" width="512" height="512" x="0" y="0" viewBox="0 0 512 512" style="enable-background:new 0 0 512 512" xml:space="preserve"><g><g xmlns="http://www.w3.org/2000/svg" id="Icons_copy" data-name="Icons copy"><path d="m96 240h16v-160a16.019 16.019 0 0 1 16-16h192a16.019 16.019 0 0 1 16 16v240a16.019 16.019 0 0 1 -16 16h-192a16.019 16.019 0 0 1 -16-16h-16a32.05 32.05 0 0 0 20.625 29.9l-20.536 136.913a8 8 0 0 0 7.911 9.187h32a8 8 0 0 0 7.911-6.813l8.578-57.187h143.022l8.578 57.187a8 8 0 0 0 7.911 6.813h32a8 8 0 0 0 7.911-9.187l-20.536-136.913a32.05 32.05 0 0 0 20.625-29.9v-80h12a28.032 28.032 0 0 0 28-28v-96a12 12 0 0 1 24 0v196.581a56.078 56.078 0 0 0 -48 55.419v48a56 56 0 0 0 112 0v-48a56.078 56.078 0 0 0 -48-55.419v-196.581a28 28 0 0 0 -56 0v96a12.013 12.013 0 0 1 -12 12h-12v-144a32.036 32.036 0 0 0 -32-32h-56v-24a8 8 0 0 0 -8-8h-64a8 8 0 0 0 -8 8v24h-56a32.036 32.036 0 0 0 -32 32zm104 128v-16h48v16zm-70.89 112h-15.821l19.2-128h15.821zm35.379-128h19.511v24a8 8 0 0 0 8 8h24v32h-61.111zm67.511 64v-32h24a8 8 0 0 0 8-8v-24h19.511l9.6 64zm86.89 64-19.2-128h15.821l19.2 128zm145.11-112v48a40 40 0 0 1 -80 0v-48a40 40 0 0 1 80 0zm-264-336h48v16h-48z" fill="#ffffff" data-original="#000000" style=""/><path d="m192 177.941h63.999v16h-63.999z" transform="matrix(.707 -.707 .707 .707 -65.871 212.865)" fill="#ffffff" data-original="#000000" style=""/><path d="m230.627 200.568h32v16h-32z" transform="matrix(.707 -.707 .707 .707 -75.244 235.494)" fill="#ffffff" data-original="#000000" style=""/><path d="m185.372 155.314h32v16h-32z" transform="matrix(.707 -.707 .707 .707 -56.5 190.223)" fill="#ffffff" data-original="#000000" style=""/><path d="m416 352h16v16h-16z" fill="#ffffff" data-original="#000000" style=""/><path d="m40 280a24.028 24.028 0 0 0 24 24h160a8 8 0 0 0 5.657-2.343l13.657-13.657h12.686v-16h-12.686l-13.657-13.657a8 8 0 0 0 -5.657-2.343h-160a24.028 24.028 0 0 0 -24 24zm16 0a8.009 8.009 0 0 1 8-8h120v16h-120a8.009 8.009 0 0 1 -8-8zm172.687 0-8 8h-20.687v-16h20.687z" fill="#ffffff" data-original="#000000" style=""/><path d="m64 72h16v120h-16z" fill="#ffffff" data-original="#000000" style=""/><path d="m64 208h16v16h-16z" fill="#ffffff" data-original="#000000" style=""/></g></g></svg>
