<?xml version="1.0"?>
<svg xmlns="http://www.w3.org/2000/svg" xmlns:xlink="http://www.w3.org/1999/xlink" xmlns:svgjs="http://svgjs.com/svgjs" version="1.1" width="512" height="512" x="0" y="0" viewBox="0 0 512 512" style="enable-background:new 0 0 512 512" xml:space="preserve"><g><path xmlns="http://www.w3.org/2000/svg" d="M341,219h84a6,6,0,0,0,6-6V190a6,6,0,0,0-6-6H341a6,6,0,0,0-6,6v23A6,6,0,0,0,341,219Zm35-23h43v11H376Zm-29,0h17v11H347Z" fill="#ffffff" data-original="#000000" style=""/><path xmlns="http://www.w3.org/2000/svg" d="M341,269H455a6,6,0,0,0,6-6V240a6,6,0,0,0-6-6H341a6,6,0,0,0-6,6v23A6,6,0,0,0,341,269Zm35-23h73v11H376Zm-29,0h17v11H347Z" fill="#ffffff" data-original="#000000" style=""/><path xmlns="http://www.w3.org/2000/svg" d="M341,319h84a6,6,0,0,0,6-6V290a6,6,0,0,0-6-6H341a6,6,0,0,0-6,6v23A6,6,0,0,0,341,319Zm35-23h43v11H376Zm-29,0h17v11H347Z" fill="#ffffff" data-original="#000000" style=""/><path xmlns="http://www.w3.org/2000/svg" d="M341,369H445a6,6,0,0,0,6-6V340a6,6,0,0,0-6-6H341a6,6,0,0,0-6,6v23A6,6,0,0,0,341,369Zm35-23h63v11H376Zm-29,0h17v11H347Z" fill="#ffffff" data-original="#000000" style=""/><path xmlns="http://www.w3.org/2000/svg" d="M89.433,402H276.567a5.65,5.65,0,0,0,5.978-6.166l-14.7-174.047a5.972,5.972,0,0,0-5.811-5.494L219,216V201.383A42.216,42.216,0,0,0,176.784,159h-.02C153.383,159.011,134,178.041,134,201.419V216H104.129a5.916,5.916,0,0,0-5.979,5.4L83.454,396a5.449,5.449,0,0,0,1.562,4.313A5.78,5.78,0,0,0,89.433,402ZM257,231.231l12.8,151.724L257,372.614ZM259.589,390H241.66l9.3-6.973ZM245,373.243l-13.641,10.231L245,244.526ZM146,201.417c0-16.764,14-30.409,30.8-30.417h.014A30.217,30.217,0,0,1,207,201.419V216H146ZM109.646,228H134v19.247a6,6,0,0,0,12,0V228h61v19.247a6,6,0,0,0,12,0V228h15.188l-12.12,123H99.257Zm-11.4,135H220.89l-2.67,27H95.959Z" fill="#ffffff" data-original="#000000" style=""/><path xmlns="http://www.w3.org/2000/svg" d="M456,48H56A46,46,0,0,0,10,94V418a46,46,0,0,0,46,46H456a46,46,0,0,0,46-46V94A46,46,0,0,0,456,48ZM22,94.182A34.2,34.2,0,0,1,56,60H168V92.869A21.021,21.021,0,0,1,146.909,114H22ZM490,417.818A34.2,34.2,0,0,1,456,452H56a34.2,34.2,0,0,1-34-34.182V126H490ZM490,114H172.491A32.54,32.54,0,0,0,180,92.868V60H456a34.2,34.2,0,0,1,34,34.182Z" fill="#ffffff" data-original="#000000" style=""/><path xmlns="http://www.w3.org/2000/svg" d="M62.364,78.979a8.182,8.182,0,1,0,8.182,8.182A8.191,8.191,0,0,0,62.364,78.979Z" fill="#ffffff" data-original="#000000" style=""/><path xmlns="http://www.w3.org/2000/svg" d="M95.091,78.979a8.182,8.182,0,1,0,8.182,8.182A8.191,8.191,0,0,0,95.091,78.979Z" fill="#ffffff" data-original="#000000" style=""/><path xmlns="http://www.w3.org/2000/svg" d="M127.819,78.979A8.182,8.182,0,1,0,136,87.161,8.191,8.191,0,0,0,127.819,78.979Z" fill="#ffffff" data-original="#000000" style=""/><path xmlns="http://www.w3.org/2000/svg" d="M44,158.833a6,6,0,0,0,6-6v-4.295a6,6,0,0,0-12,0v4.295A6,6,0,0,0,44,158.833Z" fill="#ffffff" data-original="#000000" style=""/><path xmlns="http://www.w3.org/2000/svg" d="M44,275.833a6,6,0,0,0,6-6v-96a6,6,0,0,0-12,0v96A6,6,0,0,0,44,275.833Z" fill="#ffffff" data-original="#000000" style=""/></g></svg>
