<?xml version="1.0"?>
<svg xmlns="http://www.w3.org/2000/svg" xmlns:xlink="http://www.w3.org/1999/xlink" xmlns:svgjs="http://svgjs.com/svgjs" version="1.1" width="512" height="512" x="0" y="0" viewBox="0 0 480 480" style="enable-background:new 0 0 512 512" xml:space="preserve" class=""><g>
<g xmlns="http://www.w3.org/2000/svg">
	<g>
		<path d="M200,0H8C3.582,0,0,3.582,0,8v288c0,4.418,3.582,8,8,8h72v-16H16V16h176v16h16V8C208,3.582,204.418,0,200,0z" fill="#ffffff" data-original="#000000" style="" class=""/>
	</g>
</g>
<g xmlns="http://www.w3.org/2000/svg">
	<g>
		<path d="M75.576,40.84l-16-8c-2.251-1.125-4.901-1.125-7.152,0l-16,8C33.712,42.195,31.999,44.968,32,48v16    c-0.001,3.032,1.712,5.805,4.424,7.16l16,8c2.251,1.125,4.901,1.125,7.152,0l16-8C78.288,69.805,80.001,67.032,80,64V48    C80.001,44.968,78.288,42.195,75.576,40.84z M64,59.056l-8,4l-8-4v-6.112l8-4l8,4V59.056z" fill="#ffffff" data-original="#000000" style="" class=""/>
	</g>
</g>
<g xmlns="http://www.w3.org/2000/svg">
	<g>
		<path d="M312,48H104c-4.418,0-8,3.582-8,8v288c0,4.418,3.582,8,8,8h208c4.418,0,8-3.582,8-8V56C320,51.582,316.418,48,312,48z     M304,336H112V64h192V336z" fill="#ffffff" data-original="#000000" style="" class=""/>
	</g>
</g>
<g xmlns="http://www.w3.org/2000/svg">
	<g>
		<path d="M255.672,157.816c-0.064-0.216-0.168-0.424-0.248-0.632c-0.172-0.471-0.389-0.923-0.648-1.352    c-0.136-0.216-0.28-0.424-0.44-0.632c-0.29-0.376-0.611-0.726-0.96-1.048c-0.2-0.176-0.384-0.36-0.592-0.52    c-0.208-0.16-0.192-0.184-0.296-0.256c-0.352-0.212-0.718-0.399-1.096-0.56c-0.152-0.072-0.264-0.184-0.416-0.248l-40-16    c-1.913-0.752-4.039-0.752-5.952,0l-40,16c-0.16,0.064-0.28,0.184-0.432,0.256c-0.373,0.158-0.733,0.343-1.08,0.552    c-0.104,0.072-0.184,0.176-0.296,0.256c-0.112,0.08-0.392,0.344-0.592,0.52c-0.349,0.322-0.67,0.672-0.96,1.048    c-0.16,0.208-0.304,0.416-0.44,0.632c-0.259,0.429-0.476,0.882-0.648,1.352c-0.08,0.208-0.184,0.416-0.248,0.632    c-0.21,0.709-0.32,1.444-0.328,2.184v40c-0.003,3.272,1.987,6.215,5.024,7.432l40,16c0.096,0,0.2,0,0.296,0.056    c1.721,0.682,3.638,0.682,5.36,0c0.096,0,0.2,0,0.296-0.056l40-16c3.037-1.217,5.026-4.16,5.024-7.432v-40    C255.992,159.26,255.882,158.525,255.672,157.816z M200,204.184l-24-9.6v-22.768l24,9.6V204.184z M208,167.384L189.544,160    L208,152.616L226.456,160L208,167.384z M240,194.584l-24,9.6v-22.768l24-9.6V194.584z" fill="#ffffff" data-original="#000000" style="" class=""/>
	</g>
</g>
<g xmlns="http://www.w3.org/2000/svg">
	<g>
		<path d="M472,48H344c-4.418,0-8,3.582-8,8v80c0,4.418,3.582,8,8,8h128c4.418,0,8-3.582,8-8V56C480,51.582,476.418,48,472,48z     M464,128H352V64h112V128z" fill="#ffffff" data-original="#000000" style="" class=""/>
	</g>
</g>
<g xmlns="http://www.w3.org/2000/svg">
	<g>
		<rect x="368" y="80" width="16" height="16" fill="#ffffff" data-original="#000000" style="" class=""/>
	</g>
</g>
<g xmlns="http://www.w3.org/2000/svg">
	<g>
		<path d="M472,160H344c-4.418,0-8,3.582-8,8v80c0,4.418,3.582,8,8,8h128c4.418,0,8-3.582,8-8v-80C480,163.582,476.418,160,472,160z     M464,240H352v-64h112V240z" fill="#ffffff" data-original="#000000" style="" class=""/>
	</g>
</g>
<g xmlns="http://www.w3.org/2000/svg">
	<g>
		<rect x="368" y="200" width="16" height="16" fill="#ffffff" data-original="#000000" style="" class=""/>
	</g>
</g>
<g xmlns="http://www.w3.org/2000/svg">
	<g>
		<rect x="400" y="200" width="48" height="16" fill="#ffffff" data-original="#000000" style="" class=""/>
	</g>
</g>
<g xmlns="http://www.w3.org/2000/svg">
	<g>
		<path d="M264,368H88c-4.418,0-8,3.582-8,8v96c0,4.418,3.582,8,8,8h176c4.418,0,8-3.582,8-8v-96C272,371.582,268.418,368,264,368z     M256,464H96v-80h160V464z" fill="#ffffff" data-original="#000000" style="" class=""/>
	</g>
</g>
<g xmlns="http://www.w3.org/2000/svg">
	<g>
		<path d="M472,368H296c-4.418,0-8,3.582-8,8v96c0,4.418,3.582,8,8,8h176c4.418,0,8-3.582,8-8v-96C480,371.582,476.418,368,472,368z     M464,464H304v-49.472c2.562,0.948,5.268,1.445,8,1.472h144c2.732-0.027,5.438-0.524,8-1.472V464z M464,392c0,4.418-3.582,8-8,8    H312c-4.418,0-8-3.582-8-8v-8h160V392z" fill="#ffffff" data-original="#000000" style="" class=""/>
	</g>
</g>
<g xmlns="http://www.w3.org/2000/svg">
	<g>
		<path d="M155.576,408.84l-16-8c-2.251-1.125-4.901-1.125-7.152,0l-16,8c-2.712,1.355-4.425,4.128-4.424,7.16v16    c-0.017,3.047,1.699,5.838,4.424,7.2l16,8c2.251,1.125,4.901,1.125,7.152,0l16-8c2.725-1.362,4.441-4.153,4.424-7.2v-16    C160.001,412.968,158.288,410.195,155.576,408.84z M144,427.056l-8,4l-8-4v-6.112l8-4l8,4V427.056z" fill="#ffffff" data-original="#000000" style="" class=""/>
	</g>
</g>
<g xmlns="http://www.w3.org/2000/svg">
	<g>
		<rect x="320" y="432" width="16" height="16" fill="#ffffff" data-original="#000000" style="" class=""/>
	</g>
</g>
<g xmlns="http://www.w3.org/2000/svg">
	<g>
		<rect x="352" y="432" width="48" height="16" fill="#ffffff" data-original="#000000" style="" class=""/>
	</g>
</g>
<g xmlns="http://www.w3.org/2000/svg">
</g>
<g xmlns="http://www.w3.org/2000/svg">
</g>
<g xmlns="http://www.w3.org/2000/svg">
</g>
<g xmlns="http://www.w3.org/2000/svg">
</g>
<g xmlns="http://www.w3.org/2000/svg">
</g>
<g xmlns="http://www.w3.org/2000/svg">
</g>
<g xmlns="http://www.w3.org/2000/svg">
</g>
<g xmlns="http://www.w3.org/2000/svg">
</g>
<g xmlns="http://www.w3.org/2000/svg">
</g>
<g xmlns="http://www.w3.org/2000/svg">
</g>
<g xmlns="http://www.w3.org/2000/svg">
</g>
<g xmlns="http://www.w3.org/2000/svg">
</g>
<g xmlns="http://www.w3.org/2000/svg">
</g>
<g xmlns="http://www.w3.org/2000/svg">
</g>
<g xmlns="http://www.w3.org/2000/svg">
</g>
</g></svg>
